<?xml version="1.0" encoding="iso-8859-1"?>
<!-- Uploaded to: SVG Repo, www.svgrepo.com, Generator: SVG Repo Mixer Tools -->
<svg height="800px" width="800px" version="1.1" id="Layer_1" xmlns="http://www.w3.org/2000/svg" xmlns:xlink="http://www.w3.org/1999/xlink" 
	 viewBox="0 0 511.999 511.999" xml:space="preserve">
<path style="fill:#6E4C4B;" d="M458.858,28.332C458.858,12.75,446.108,0,430.526,0H81.473C65.891,0,53.141,12.75,53.141,28.332
	v455.336c0,15.583,12.75,28.332,28.333,28.332h349.052c15.583,0,28.333-12.75,28.333-28.332L458.858,28.332L458.858,28.332z"/>
<g style="opacity:0.2;">
	<path d="M91.675,311.674c-4.553,0-8.244-3.69-8.244-8.244v-87.65c0-4.554,3.691-8.244,8.244-8.244c4.553,0,8.244,3.69,8.244,8.244
		v87.65C99.919,307.984,96.229,311.674,91.675,311.674z"/>
	<path d="M422.247,323.309c-4.553,0-8.244-3.69-8.244-8.244v-75.93c0-4.554,3.691-8.244,8.244-8.244s8.244,3.69,8.244,8.244v75.93
		C430.492,319.618,426.8,323.309,422.247,323.309z"/>
	<path d="M403.709,459.16c-4.553,0-8.244-3.69-8.244-8.244v-55.89c0-4.554,3.691-8.244,8.244-8.244c4.553,0,8.244,3.69,8.244,8.244
		v55.89C411.953,455.469,408.262,459.16,403.709,459.16z"/>
	<path d="M121.897,398.859c-4.553,0-8.244-3.69-8.244-8.244v-55.888c0-4.554,3.691-8.244,8.244-8.244
		c4.553,0,8.244,3.69,8.244,8.244v55.888C130.142,395.167,126.45,398.859,121.897,398.859z"/>
	<path d="M362.215,346.73c-4.553,0-8.244-3.69-8.244-8.244v-42.676c0-4.554,3.691-8.244,8.244-8.244c4.553,0,8.244,3.69,8.244,8.244
		v42.676C370.459,343.039,366.769,346.73,362.215,346.73z"/>
</g>
<path style="opacity:0.2;enable-background:new    ;" d="M253.66,391.05c-17.401-0.728-30.816-10.084-39.392-17.059
	c-42.922-34.912-76.3-87.4-99.205-156.003C93.48,153.351,88.515,95.15,87.507,78.852c-0.685-11.09,3.496-22.314,11.472-30.796
	c8.255-8.781,19.648-13.618,32.08-13.618h247.567c12.431,0,23.824,4.837,32.08,13.618c7.975,8.482,12.156,19.706,11.472,30.794
	c-1.009,16.299-5.974,74.5-27.555,139.138c-22.906,68.603-56.284,121.091-99.205,156c-8.577,6.977-21.991,16.332-39.393,17.061
	l-1.182,0.049L253.66,391.05z"/>
<path style="fill:#F9BE00;" d="M378.624,62.771c10.624,0,15.623,8.654,15.272,14.332c-3.56,57.591-27.387,202.541-116.359,274.905
	c-8.024,6.528-15.167,10.42-22.697,10.734c-7.529-0.314-14.673-4.206-22.697-10.734c-88.971-72.364-112.797-217.314-116.358-274.904
	c-0.351-5.678,4.648-14.332,15.273-14.332h247.566V62.771z"/>
<g style="opacity:0.2;">
	<path d="M336.046,122.471c0-6.234-5.1-11.333-11.333-11.333H187.292c-6.233,0-11.333,5.099-11.333,11.333v21.533
		c0,6.233,5.099,11.333,11.333,11.333h137.422c6.234,0,11.333-5.1,11.333-11.333v-21.533H336.046z"/>
</g>
<path style="opacity:0.2;enable-background:new    ;" d="M316.824,207.778H192.859c-4.553,0-8.244-3.69-8.244-8.244
	c0-4.554,3.691-8.244,8.244-8.244h123.964c4.553,0,8.244,3.69,8.244,8.244S321.377,207.778,316.824,207.778z"/>
<path style="opacity:0.2;enable-background:new    ;" d="M308.761,242.533H200.923c-4.553,0-8.244-3.69-8.244-8.244
	s3.691-8.244,8.244-8.244h107.838c4.553,0,8.244,3.69,8.244,8.244C317.005,238.842,313.314,242.533,308.761,242.533z"/>
<path style="opacity:0.2;enable-background:new    ;" d="M291.77,277.288h-73.858c-4.553,0-8.244-3.69-8.244-8.244
	c0-4.554,3.691-8.244,8.244-8.244h73.858c4.553,0,8.244,3.69,8.244,8.244C300.014,273.597,296.323,277.288,291.77,277.288z"/>
<path style="fill:#F9E0A4;" d="M371.283,419.419c0-6.234-5.1-11.334-11.333-11.334H149.733c-6.233,0-11.333,5.1-11.333,11.334
	v40.328c0,6.234,5.1,11.333,11.333,11.333H359.95c6.233,0,11.333-5.099,11.333-11.333V419.419z"/>
<path style="opacity:0.2;enable-background:new    ;" d="M303.601,447.826H206.08c-4.553,0-8.244-3.69-8.244-8.244
	s3.691-8.244,8.244-8.244h97.521c4.553,0,8.244,3.69,8.244,8.244S308.154,447.826,303.601,447.826z"/>
<circle style="fill:#FFFFFF;" cx="321.194" cy="127.697" r="41.023"/>
</svg>